# xmcd CD database file
#
# Track frame offsets:
#	183
#	14883
#	35733
#	46683
#	67233
#	84483
#	98283
#	116583
#	128433
#	144483
#
# Disc length: 2171 seconds
#
# Revision: 0
# Processed by: cddbd v1.5.2PL0 Copyright (c) Steve Scherf et al.
# Submitted via: CDex 1.51
#
DISCID=8108790a
DTITLE=Frl. Mayer's Hinterhausjazzer - Frl. Mayer's Stille Nacht
DYEAR=1900
DGENRE=Jazz
TTITLE0=Vom Himmel hoch da komm ich her
TTITLE1=Am Weihnachtsbaum die Lichter brennen
TTITLE2=Jingle Bells
TTITLE3=Auf dem Berge da wehet der Wind
TTITLE4=O du fröhliche, o du selige
TTITLE5=Herbei o ihr Gläubigen
TTITLE6=White Christmas
TTITLE7=Kling, Glöckchen, klingelingeling
TTITLE8=Kindelein zart
TTITLE9=Stille Nacht, heilige Nacht
EXTD=
EXTT0=
EXTT1=
EXTT2=
EXTT3=
EXTT4=
EXTT5=
EXTT6=
EXTT7=
EXTT8=
EXTT9=
PLAYORDER=
